PathFileType	4	(X/Y/Z)	/Users/itak/Documents/Research/Walk-IL/dataset/trc/00078_00006.trc
DataRate	CameraRate	NumFrames	NumMarkers	Units	OrigDataRate	OrigDataStartFrame	OrigNumFrames
100.000000	100.000000	4	53	mm	100.000000	534	611
Frame#	Time	RPSI			LPSI			L3			STRN			T10			C7			CLAV			RBAK			LBAK			LSHO			LUPA			LAEL			LAOL			LWTS			LWPS			LFRA			LIFD			LHPS			LHTS			RSHO			RUPA			RAEL			RAOL			RWTS			RWPS			RFRA			RIFD			RHTS			RHPS			RBHD			LFHD			RFHD			LBHD			LHIP			RHIP			RASI			LASI			LKNE			LTHI			LANK			LTIP			LTOE			LMT1			LMT5			LHEE			RKNE			RTHI			RANK			RTIP			RTOE			RMT1			RMT5			RHEE			
		X1	Y1	Z1	X2	Y2	Z2	X3	Y3	Z3	X4	Y4	Z4	X5	Y5	Z5	X6	Y6	Z6	X7	Y7	Z7	X8	Y8	Z8	X9	Y9	Z9	X10	Y10	Z10	X11	Y11	Z11	X12	Y12	Z12	X13	Y13	Z13	X14	Y14	Z14	X15	Y15	Z15	X16	Y16	Z16	X17	Y17	Z17	X18	Y18	Z18	X19	Y19	Z19	X20	Y20	Z20	X21	Y21	Z21	X22	Y22	Z22	X23	Y23	Z23	X24	Y24	Z24	X25	Y25	Z25	X26	Y26	Z26	X27	Y27	Z27	X28	Y28	Z28	X29	Y29	Z29	X30	Y30	Z30	X31	Y31	Z31	X32	Y32	Z32	X33	Y33	Z33	X34	Y34	Z34	X35	Y35	Z35	X36	Y36	Z36	X37	Y37	Z37	X38	Y38	Z38	X39	Y39	Z39	X40	Y40	Z40	X41	Y41	Z41	X42	Y42	Z42	X43	Y43	Z43	X44	Y44	Z44	X45	Y45	Z45	X46	Y46	Z46	X47	Y47	Z47	X48	Y48	Z48	X49	Y49	Z49	X50	Y50	Z50	X51	Y51	Z51	X52	Y52	Z52	X53	Y53	Z53	

535	5.34	658.0931396484375	1019.494567871094	-638.9442749023438	483.2945251464844	1010.3017578125	-625.0921630859375	567.3992919921875	1074.384399414062	-631.8531494140625	568.6369018554688	1282.437866210938	-878.3328247070312	570.6939697265625	1208.794555664062	-609.3367309570312	575.2578125	1477.18212890625	-663.30224609375	569.6471557617188	1395.916137695312	-844.8072509765625	646.622314453125	1336.576171875	-604.999267578125	473.869140625	1441.457397460938	-638.9573364257812	399.3638000488281	1450.30029296875	-738.2029418945312	318.901123046875	1326.876953125	-716.9284057617188	289.2154846191406	1112.58642578125	-731.5730590820312	379.2958068847656	1098.051635742188	-669.9673461914062	346.12158203125	874.4815063476562	-828.273193359375	292.8418579101562	861.7468872070312	-764.30712890625	279.7231140136719	1003.224365234375	-751.4207153320312	363.3550109863281	688.5343017578125	-845.1862182617188	294.7416381835938	782.2410888671875	-797.0903930664062	338.8757629394531	791.4102783203125	-850.8655395507812	746.2189331054688	1440.4580078125	-730.4664916992188	807.8511962890625	1371.551635742188	-720.4583129882812	850.7127685546875	1110.987426757812	-697.7623901367188	757.3970336914062	1084.916381835938	-716.4850463867188	823.949951171875	865.456787109375	-854.2747192382812	873.895263671875	848.3402709960938	-785.5411987304688	862.4676513671875	1031.10693359375	-714.3767700195312	814.1442260742188	677.8114624023438	-870.5203857421875	825.9591064453125	767.3967895507812	-884.9346923828125	879.33642578125	762.1950073242188	-829.1722412109375	524.4684448242188	1659.54541015625	-703.0704345703125	628.2503662109375	1692.52734375	-889.3984985351562	502.3224487304688	1699.17236328125	-876.5127563476562	659.4039306640625	1645.766967773438	-727.4215698242188	385.3469848632812	958.734619140625	-731.7097778320312	730.0888671875	949.2498168945312	-712.8992919921875	706.8173217773438	972.5942993164062	-835.013916015625	437.3382873535156	973.8964233398438	-841.701416015625	416.7933654785156	501.239501953125	-852.30517578125	386.3380126953125	639.3228149414062	-806.7344360351562	379.0038146972656	48.54703903198242	-713.9542236328125	383.6082458496094	262.8342895507812	-773.994140625	372.1496887207031	40.30702590942383	-918.8616943359375	429.5060729980469	39.12611389160156	-872.874267578125	334.8711853027344	40.61168670654297	-813.5761108398438	458.3492736816406	42.81016540527344	-665.2777709960938	682.5006103515625	509.8076782226562	-801.6873779296875	725.5147705078125	779.4735107421875	-801.95703125	639.7349853515625	34.50617980957031	-708.1536254882812	677.6353149414062	385.8724975585938	-780.0729370117188	610.0407104492188	33.36743927001953	-927.4735107421875	567.6306762695312	42.06873321533203	-867.500732421875	659.54296875	37.65079116821289	-830.7301025390625	581.0272827148438	38.1453857421875	-665.4130249023438	
536	5.350000000000001	658.647216796875	1019.45458984375	-641.3025512695312	483.8387145996094	1010.328063964844	-627.0376586914062	567.90087890625	1074.250122070312	-633.9691772460938	568.40625	1282.451293945312	-880.2159423828125	570.9788208007812	1208.7109375	-611.2425537109375	575.2191162109375	1477.122192382812	-665.1419677734375	569.3807373046875	1395.918334960938	-846.6583862304688	646.7150268554688	1336.534790039062	-606.9644775390625	473.8936767578125	1441.291015625	-640.6348266601562	399.2080078125	1450.14013671875	-739.7623291015625	318.7629089355469	1326.711059570312	-718.4859008789062	289.0075073242188	1112.4404296875	-733.3717651367188	379.1549377441406	1097.797729492188	-671.8079833984375	345.6605834960938	874.3191528320312	-830.1985473632812	292.4783020019531	861.591552734375	-766.2022705078125	279.4058837890625	1003.078552246094	-753.251953125	362.7812805175781	688.380859375	-847.2550048828125	294.3060913085938	782.090087890625	-799.0218505859375	338.3974304199219	791.3021850585938	-852.8291625976562	746.0882568359375	1440.490844726562	-732.5679931640625	807.7822875976562	1371.611328125	-722.6603393554688	850.367431640625	1111.029174804688	-699.7537841796875	756.8299560546875	1085.007934570312	-718.2317504882812	823.2177124023438	864.8854370117188	-855.3428955078125	873.40869140625	848.114013671875	-786.70556640625	862.019287109375	1031.130737304688	-716.1830444335938	813.4761352539062	677.207763671875	-870.996337890625	825.2286987304688	766.7446899414062	-885.61181640625	878.8556518554688	761.913330078125	-830.0518798828125	524.30517578125	1659.2158203125	-704.4993896484375	628.0757446289062	1692.885864257812	-890.7134399414062	502.1940002441406	1699.692138671875	-877.7484741210938	659.2658081054688	1645.394653320312	-728.9808959960938	385.630126953125	958.6682739257812	-733.524658203125	730.4777221679688	949.1924438476562	-715.4744262695312	706.8402099609375	972.4901123046875	-837.5274658203125	437.3720092773438	973.8789672851562	-843.5517578125	416.6517944335938	501.0889892578125	-851.9701538085938	386.3124389648438	639.2962036132812	-806.8010864257812	378.9981384277344	48.49290084838867	-713.918701171875	383.3505859375	262.7511291503906	-773.891845703125	372.1631774902344	40.35324096679688	-918.857666015625	429.4866027832031	39.13225555419922	-872.82861328125	334.9209289550781	40.55813980102539	-813.5394897460938	458.4317626953125	42.62974548339844	-665.2233276367188	682.5861206054688	509.7687683105469	-802.8186645507812	725.7435913085938	779.3560791015625	-804.095947265625	639.66259765625	34.54378509521484	-708.1940307617188	677.6410522460938	385.8314208984375	-780.88037109375	609.9816284179688	33.30469512939453	-927.53515625	567.6001586914062	42.0289421081543	-867.5516357421875	659.4776000976562	37.65974807739258	-830.784423828125	581.0142822265625	38.24252319335938	-665.447509765625	
537	5.36	659.2177124023438	1019.473693847656	-643.6240844726562	484.3994750976562	1010.395812988281	-628.9129638671875	568.4060668945312	1074.121459960938	-636.0760498046875	568.1551513671875	1282.485473632812	-882.0592041015625	571.249267578125	1208.624633789062	-613.098388671875	575.1420288085938	1477.064453125	-666.9234619140625	569.0960693359375	1395.934204101562	-848.4599609375	646.7914428710938	1336.509155273438	-608.8897705078125	473.8812255859375	1441.131103515625	-642.264892578125	399.0290832519531	1449.996826171875	-741.283935546875	318.6122741699219	1326.554809570312	-720.0304565429688	288.7529602050781	1112.312866210938	-735.19091796875	378.9359741210938	1097.5546875	-673.6575317382812	345.1246643066406	874.1445922851562	-832.10693359375	292.0029907226562	861.4381713867188	-768.0930786132812	279.0377502441406	1002.950988769531	-755.0983276367188	362.0870971679688	688.2078247070312	-849.2555541992188	293.7469482421875	781.9396362304688	-800.9326171875	337.8203735351562	791.1664428710938	-854.7608642578125	745.932861328125	1440.533081054688	-734.5924682617188	807.6936645507812	1371.6845703125	-724.7819213867188	849.9530029296875	1111.06884765625	-701.6597290039062	756.1903686523438	1085.12939453125	-719.9047241210938	822.5038452148438	864.3534545898438	-856.36376953125	872.8895874023438	847.9058837890625	-787.7916259765625	861.5133056640625	1031.15380859375	-717.90380859375	812.8421630859375	676.6339721679688	-871.4347534179688	824.5324096679688	766.12255859375	-886.2515869140625	878.3939208984375	761.67822265625	-830.8831787109375	524.1563110351562	1658.903930664062	-705.8508911132812	627.8740234375	1693.258422851562	-891.9805297851562	502.0263366699219	1700.216186523438	-878.9038696289062	659.1044311523438	1645.042602539062	-730.479736328125	385.8903198242188	958.6165161132812	-735.3115234375	730.849609375	949.1482543945312	-718.0220947265625	706.7973022460938	972.379638671875	-840.0175170898438	437.3524475097656	973.8880615234375	-845.3202514648438	416.5295104980469	500.9813537597656	-851.7697143554688	386.2604064941406	639.3010864257812	-806.9743041992188	379.0060119628906	48.46692276000977	-713.9087524414062	383.1339721679688	262.6925964355469	-773.8554077148438	372.1869812011719	40.36749267578125	-918.8895263671875	429.4766540527344	39.12707901000977	-872.8079833984375	334.9723510742188	40.52328109741211	-813.531494140625	458.5219116210938	42.50296783447266	-665.2041625976562	682.6470336914062	509.7610168457031	-803.9317016601562	725.9144897460938	779.2318115234375	-806.177001953125	639.5947265625	34.57197570800781	-708.2326049804688	677.5966186523438	385.7644958496094	-781.6583251953125	609.928466796875	33.25229644775391	-927.58935546875	567.572509765625	41.98977279663086	-867.6023559570312	659.4197387695312	37.66651153564453	-830.8252563476562	581.006103515625	38.33352661132812	-665.4785766601562	
538	5.37	659.7931518554688	1019.52880859375	-645.8980712890625	484.9702453613281	1010.49560546875	-630.7138671875	568.9066772460938	1074.0068359375	-638.1593017578125	567.8823852539062	1282.53662109375	-883.8619384765625	571.52001953125	1208.537475585938	-614.8993530273438	575.03076171875	1477.005004882812	-668.6498413085938	568.7939453125	1395.962524414062	-850.2135009765625	646.8602294921875	1336.499877929688	-610.77587890625	473.8418884277344	1440.980224609375	-643.8504028320312	398.83984375	1449.86669921875	-742.7666015625	318.4728698730469	1326.400634765625	-721.5571899414062	288.4609680175781	1112.201782226562	-737.0313720703125	378.6353149414062	1097.320678710938	-675.5210571289062	344.5309448242188	873.9585571289062	-834.0006713867188	291.4078063964844	861.2962036132812	-769.98974609375	278.6276245117188	1002.844543457031	-756.9659423828125	361.2694091796875	688.0048217773438	-851.1804809570312	293.0348205566406	781.7994384765625	-802.8370971679688	337.1520385742188	790.9957885742188	-856.6610717773438	745.7607421875	1440.586791992188	-736.5540161132812	807.5843505859375	1371.768188476562	-726.8319091796875	849.4735107421875	1111.1044921875	-703.4833374023438	755.5230102539062	1085.25439453125	-721.5504150390625	821.815185546875	863.8701782226562	-857.3450317382812	872.3485717773438	847.7318115234375	-788.8128051757812	860.959716796875	1031.181274414062	-719.544921875	812.2432250976562	676.0941162109375	-871.8442993164062	823.8712768554688	765.534423828125	-886.8626098632812	877.9321899414062	761.4722900390625	-831.6566772460938	524.02978515625	1658.60986328125	-707.1249389648438	627.654052734375	1693.650512695312	-893.2048950195312	501.819580078125	1700.739501953125	-879.9813232421875	658.9212646484375	1644.7080078125	-731.9207763671875	386.1414184570312	958.5620727539062	-737.060546875	731.1951293945312	949.1195068359375	-720.5313110351562	706.6874389648438	972.2607421875	-842.4676513671875	437.2832641601562	973.9185180664062	-847.0056762695312	416.4247131347656	500.9017333984375	-851.708984375	386.1856384277344	639.3305053710938	-807.27685546875	379.0245056152344	48.4649772644043	-713.9171752929688	382.97314453125	262.6505432128906	-773.875244140625	372.2149658203125	40.35150146484375	-918.9483642578125	429.4713745117188	39.11077499389648	-872.8086547851562	335.0217590332031	40.50262832641602	-813.5453491210938	458.6145935058594	42.42290115356445	-665.2130737304688	682.6644287109375	509.7682189941406	-805.0413208007812	726.0208740234375	779.0919189453125	-808.1979370117188	639.5274658203125	34.59368515014648	-708.2715454101562	677.4988403320312	385.6710815429688	-782.4298706054688	609.8784790039062	33.20730972290039	-927.640625	567.5437622070312	41.94745254516602	-867.654541015625	659.3677368164062	37.67025375366211	-830.8572387695312	580.999755859375	38.42001342773438	-665.5078125	
